HIERARCHY
ROOT Hips
{
	OFFSET 0.00000 0.00000 0.00000
	CHANNELS 6 Xposition Yposition Zposition Zrotation Yrotation Xrotation 
	JOINT LHipJoint
	{
		OFFSET 0 0 0
		CHANNELS 3 Zrotation Yrotation Xrotation
		JOINT LeftUpLeg
		{
			OFFSET 1.30186 -1.90722 0.65024
			CHANNELS 3 Zrotation Yrotation Xrotation
			JOINT LeftLeg
			{
				OFFSET 2.56413 -7.04489 0.00000
				CHANNELS 3 Zrotation Yrotation Xrotation
				JOINT LeftFoot
				{
					OFFSET 2.79321 -7.67428 0.00000
					CHANNELS 3 Zrotation Yrotation Xrotation
					JOINT LeftToeBase
					{
						OFFSET 0.15723 -0.43198 2.08537
						CHANNELS 3 Zrotation Yrotation Xrotation
						End Site
						{
							OFFSET 0.00000 -0.00000 1.07411
						}
					}
				}
			}
		}
	}
	JOINT RHipJoint
	{
		OFFSET 0 0 0
		CHANNELS 3 Zrotation Yrotation Xrotation
		JOINT RightUpLeg
		{
			OFFSET -1.28627 -1.90723 0.65024
			CHANNELS 3 Zrotation Yrotation Xrotation
			JOINT RightLeg
			{
				OFFSET -2.56567 -7.04913 0.00000
				CHANNELS 3 Zrotation Yrotation Xrotation
				JOINT RightFoot
				{
					OFFSET -2.75597 -7.57198 0.00000
					CHANNELS 3 Zrotation Yrotation Xrotation
					JOINT RightToeBase
					{
						OFFSET -0.17500 -0.48081 2.22901
						CHANNELS 3 Zrotation Yrotation Xrotation
						End Site
						{
							OFFSET -0.00000 -0.00000 1.14762
						}
					}
				}
			}
		}
	}
	JOINT LowerBack
	{
		OFFSET 0 0 0
		CHANNELS 3 Zrotation Yrotation Xrotation
		JOINT Spine
		{
			OFFSET -0.04522 2.07467 -0.16566
			CHANNELS 3 Zrotation Yrotation Xrotation
			JOINT Spine1
			{
				OFFSET -0.01178 2.08825 -0.05393
				CHANNELS 3 Zrotation Yrotation Xrotation
				JOINT Neck
				{
					OFFSET 0 0 0
					CHANNELS 3 Zrotation Yrotation Xrotation
					JOINT Neck1
					{
						OFFSET -0.05182 1.80489 0.16014
						CHANNELS 3 Zrotation Yrotation Xrotation
						JOINT Head
						{
							OFFSET 0.14739 1.78840 -0.33342
							CHANNELS 3 Zrotation Yrotation Xrotation
							End Site
							{
								OFFSET 0.04364 1.83899 -0.13460
							}
						}
					}
				}
				JOINT LeftShoulder
				{
					OFFSET 0 0 0
					CHANNELS 3 Zrotation Yrotation Xrotation
					JOINT LeftArm
					{
						OFFSET 3.01264 1.29090 -0.06579
						CHANNELS 3 Zrotation Yrotation Xrotation
						JOINT LeftForeArm
						{
							OFFSET 5.55680 -0.00000 0.00000
							CHANNELS 3 Zrotation Yrotation Xrotation
							JOINT LeftHand
							{
								OFFSET 3.63979 -0.00000 -0.00000
								CHANNELS 3 Zrotation Yrotation Xrotation
								JOINT LeftFingerBase
								{
									OFFSET 0 0 0
									CHANNELS 3 Zrotation Yrotation Xrotation
									JOINT LeftHandIndex1
									{
										OFFSET 0.56942 -0.00000 -0.00000
										CHANNELS 3 Zrotation Yrotation Xrotation
										End Site
										{
											OFFSET 0.45908 -0.00000 -0.00000
										}
									}
								}
								JOINT LThumb
								{
									OFFSET 0 0 0
									CHANNELS 3 Zrotation Yrotation Xrotation
									End Site
									{
										OFFSET 0.46609 -0.00000 0.46609
									}
								}
							}
						}
					}
				}
				JOINT RightShoulder
				{
					OFFSET 0 0 0
					CHANNELS 3 Zrotation Yrotation Xrotation
					JOINT RightArm
					{
						OFFSET -3.15796 1.37283 -0.36748
						CHANNELS 3 Zrotation Yrotation Xrotation
						JOINT RightForeArm
						{
							OFFSET -5.34339 -0.00000 0.00000
							CHANNELS 3 Zrotation Yrotation Xrotation
							JOINT RightHand
							{
								OFFSET -3.65101 -0.00000 -0.00000
								CHANNELS 3 Zrotation Yrotation Xrotation
								JOINT RightFingerBase
								{
									OFFSET 0 0 0
									CHANNELS 3 Zrotation Yrotation Xrotation
									JOINT RightHandIndex1
									{
										OFFSET -0.69425 -0.00000 -0.00000
										CHANNELS 3 Zrotation Yrotation Xrotation
										End Site
										{
											OFFSET -0.55972 -0.00000 -0.00000
										}
									}
								}
								JOINT RThumb
								{
									OFFSET 0 0 0
									CHANNELS 3 Zrotation Yrotation Xrotation
									End Site
									{
										OFFSET -0.56827 -0.00000 0.56827
									}
								}
							}
						}
					}
				}
			}
		}
	}
}
MOTION
Frames: 16
Frame Time: 0.111111
0.00 0.00 0.00 0 0 0 0 0 0 -21 0 0 0 0 0 0 0 0 0 0 0 0 0 0 21 0 0 0 0 0 0 0 0 0 0 0 0 0 0 0 0 0 0 0 0 0 0 -16 0 0 21 0 0 11 0 0 0 -8 0 0 0 0 0 0 0 0 0 0 0 0 0 0 0 0 0 0 0 0 8 0 0 0 0 0 0 0 0 0 0 0 0 0 0 0 0 0
0.00 0.00 0.00 6.7872 6.1203 -1.9854 0.0000 0.0000 0.0000 -25.8419 2.3279 8.1266 2.5323 9.8964 28.6418 -0.3657 -10.8559 1.7300 0.2525 -3.2329 -8.9280 0.0000 0.0000 0.0000 10.9091 11.1141 -21.4675 -1.9840 -8.8326 25.2732 0.4739 -12.1004 -4.9750 -0.5025 -4.5441 12.6128 -5.2716 -0.7450 2.0909 -0.1060 -1.0987 0.7376 2.8707 -0.5551 -0.3167 -4.5896 -3.2912 -13.7872 -0.4500 -3.3754 25.3074 0.1775 -2.0386 10.4612 -0.0000 0.0000 0.0000 -85.0616 -8.7882 22.4565 42.5810 -49.5268 -20.3814 -0.0000 -0.0000 173.5860 26.8533 -17.9487 -8.8681 -7.1250 0.0000 -0.0000 -0.7733 10.0262 0.6269 -0.0000 0.0000 0.0000 85.3823 13.0727 25.7063 -34.5367 44.4784 -14.4878 0.0000 -0.0000 -10.6648 -19.5387 32.3639 -10.7560 7.1250 -0.0000 -0.0000 6.9312 3.7186 7.4193
0.00 0.00 0.00 4.4076 7.3145 -3.3943 0.0000 0.0000 0.0000 -21.8025 0.0052 1.0650 5.9350 14.3651 44.7203 0.0085 -6.5977 9.6225 0.3984 -4.0525 -11.2244 0.0000 0.0000 0.0000 15.1658 8.1157 -19.5556 -2.5146 -9.8643 28.5385 0.2746 -9.6200 -6.3786 -0.6063 -4.9842 13.8634 -3.7150 -0.2978 2.8033 1.4109 -0.4854 1.0538 3.5518 -0.2513 -0.4457 -5.4879 -4.6180 -13.1527 -0.8337 -4.9636 25.4515 -0.0083 -2.8972 10.4515 -0.0000 -0.0000 0.0000 -88.1195 -7.8205 22.2906 41.6316 -49.0074 -19.6621 -0.0000 -0.0000 175.2590 18.6649 -19.6600 -6.4837 -7.1250 0.0000 -0.0000 -6.2341 9.4164 5.1616 -0.0000 -0.0000 0.0000 84.6494 18.9331 24.4233 -32.7351 43.1254 -13.2406 0.0000 -0.0000 -11.5754 -20.3815 33.5817 -11.6128 7.1250 -0.0000 -0.0000 6.6332 5.1186 7.2454
0.00 0.00 0.00 -0.0772 6.8750 -3.6410 0.0000 0.0000 0.0000 -15.9205 -5.6660 -13.9674 9.5518 17.1500 57.9794 0.0618 -2.9660 -4.5779 0.3406 -3.7505 -10.3758 0.0000 0.0000 0.0000 22.6582 5.2671 -12.7558 -2.1157 -9.1030 26.1182 0.1541 -9.5572 -10.4902 -0.4390 -4.2515 11.7852 1.6094 1.6417 3.5640 2.4866 2.2983 0.3386 1.5358 1.1453 -1.6887 -8.5224 -8.1593 -10.6682 1.0899 -9.9657 23.9341 0.5997 -5.2629 9.8547 -0.0000 -0.0000 0.0000 -89.7561 -1.8517 22.5078 37.1048 -46.2579 -16.3157 -0.0000 -0.0000 179.1390 24.9049 -15.5125 -7.0784 -7.1250 0.0000 -0.0000 -1.8397 12.9713 1.3805 -0.0000 -0.0000 0.0000 84.8846 27.8018 18.5045 -25.2307 36.4389 -8.4266 0.0000 -0.0000 -14.8667 -15.9862 32.0025 -8.6330 7.1250 -0.0000 -0.0000 8.8869 2.6954 9.4068
0.00 0.00 0.00 -0.8032 6.3129 -2.0724 0.0000 0.0000 0.0000 -14.7603 -10.3642 -21.3781 5.7910 14.2227 44.1371 0.4073 -2.5306 -11.4478 0.5414 -4.7144 -13.0958 0.0000 0.0000 0.0000 24.7997 4.5320 -9.6326 -2.0294 -8.9271 25.5676 -0.1115 -9.2518 -14.9894 -0.3012 -3.5289 9.7548 2.5983 2.7129 3.4193 2.0500 3.7400 0.6209 0.4847 1.8614 -1.2477 -10.8588 -10.2546 -10.2031 4.0806 -13.0105 18.8830 1.6645 -6.5521 8.5551 -0.0000 0.0000 0.0000 -88.7597 3.7960 16.0797 33.1557 -43.4494 -13.5290 -0.0000 0.0000 -178.2430 28.2607 -18.5569 -9.7080 -7.1250 0.0000 -0.0000 0.0733 9.1165 -0.0607 -0.0000 0.0000 0.0000 83.7643 27.1592 21.1374 -25.9310 37.1405 -8.8459 0.0000 -0.0000 -20.6074 -5.4111 30.4445 -2.7479 7.1250 -0.0000 -0.0000 14.7590 -0.2935 15.1971
0.00 0.00 0.00 -2.4893 -0.7767 -0.8310 0.0000 0.0000 0.0000 -11.6344 -16.3103 -17.2121 0.8113 5.7481 16.0553 -0.0008 -0.6994 0.7560 0.0158 -0.8118 -2.2313 0.0000 0.0000 0.0000 27.3270 0.6550 1.7388 -1.0394 -6.4842 18.1959 -0.5476 -4.9723 -16.6786 -0.0818 -1.8448 5.0769 3.0823 2.3530 1.8002 0.6168 3.1836 1.0029 -1.1400 1.6034 0.1531 -10.5207 -10.1592 -9.1086 5.9665 -13.3006 16.0812 2.2950 -6.5391 7.5537 -0.0000 -0.0000 0.0000 -88.8098 18.3136 -10.1961 22.6930 -33.7514 -6.9670 -0.0000 0.0000 -167.0890 27.2869 -19.8483 -9.9344 -7.1250 0.0000 -0.0000 -0.7036 7.8755 0.6006 -0.0000 -0.0000 0.0000 82.5017 0.7994 46.1149 -72.2962 58.7820 -44.7308 0.0000 -0.0000 -24.7776 -32.1711 24.5597 -14.6521 7.1250 -0.0000 -0.0000 -1.6396 -1.6264 -1.5930
0.00 0.00 0.00 -2.2525 -2.6936 -0.5876 0.0000 0.0000 0.0000 -12.4938 -16.4231 -17.2940 1.1248 6.7366 18.9373 0.0129 0.0116 2.1397 0.0504 1.4490 3.9852 0.0000 0.0000 0.0000 26.6459 0.6078 3.2727 -1.0393 -6.4837 18.1946 -0.5300 -4.2001 -15.9301 -0.1305 -2.3288 6.4153 2.3301 2.3666 1.0867 0.4740 3.1732 0.7983 -0.8402 1.5955 0.3090 -11.4419 -10.3157 -9.3506 6.4953 -13.5789 18.0984 2.5213 -6.6719 8.3990 -0.0000 -0.0000 0.0000 -89.5655 19.7764 -15.1250 20.9513 -31.7715 -6.0243 -0.0000 0.0000 -162.6240 29.2848 -18.6916 -10.1890 -7.1250 0.0000 -0.0000 0.7176 8.7803 -0.5997 -0.0000 -0.0000 0.0000 82.0365 -5.9940 49.2944 -92.1582 59.9824 -61.8690 0.0000 -0.0000 -21.0848 -32.8315 22.3966 -13.8120 7.1250 -0.0000 -0.0000 -2.4082 -3.8745 -2.2420
0.00 0.00 0.00 0.3530 -8.5959 -1.4973 0.0000 0.0000 0.0000 -16.4495 -12.2249 -14.9715 1.6060 7.9920 22.6899 0.0195 -1.5514 -2.5469 0.1745 2.6909 7.4194 0.0000 0.0000 0.0000 21.5443 1.3502 -0.9489 -3.1553 -10.9423 32.0856 -0.3785 2.0950 -11.0838 -0.0010 0.2056 -0.5648 -1.9185 1.8477 0.9972 -1.5404 2.4487 0.7359 -0.5231 1.2200 0.1820 -11.2505 -9.9694 -10.9248 7.9652 -13.9480 25.0591 2.8112 -6.6036 11.3056 -0.0000 0.0000 0.0000 -88.9272 20.1949 -27.1847 17.8648 -27.9836 -4.4856 -0.0000 0.0000 -155.2440 30.5678 -20.1830 -11.5182 -7.1250 0.0000 -0.0000 1.3386 6.8663 -1.1693 -0.0000 0.0000 0.0000 83.5168 -18.6192 56.4877 -103.1649 59.3349 -71.3757 0.0000 -0.0000 -12.1017 -34.3567 23.7591 -15.3985 7.1250 -0.0000 -0.0000 -3.0963 -1.9479 -2.9937
0.00 0.00 0.00 1.3560 -13.6693 -1.8486 0.0000 0.0000 0.0000 -18.2196 -9.1386 -13.4042 1.6044 7.9883 22.6785 0.1035 0.0005 -6.0771 0.0046 0.4391 1.2067 0.0000 0.0000 0.0000 18.1395 3.1040 -5.7478 -5.0369 -13.4252 40.9819 -0.2955 0.2700 -10.1762 -0.2140 2.9783 -8.2182 -3.8977 2.0152 1.0815 -1.8746 2.6344 0.3631 0.2221 1.3153 -0.3208 -10.7636 -9.0853 -11.9238 6.8398 -12.7766 29.2605 2.4736 -6.1090 12.9076 0.0000 -0.0000 0.0000 -88.1130 19.7277 -22.9676 18.0196 -28.1822 -4.5585 -0.0000 0.0000 -156.3720 26.3603 -16.1864 -7.8650 -7.1250 0.0000 -0.0000 -0.9251 12.0315 0.7120 0.0000 -0.0000 0.0000 83.4639 -19.3618 56.3589 -84.1630 59.8709 -54.9472 0.0000 -0.0000 -10.1545 -38.6582 30.1089 -21.8652 7.1250 -0.0000 -0.0000 -4.2199 6.5292 -4.6844
0.00 0.00 0.00 1.5081 -22.8351 -2.5248 0.0000 0.0000 0.0000 -18.5126 -11.3587 -8.7218 1.5825 7.9362 22.5205 0.3025 7.9646 -16.2040 0.0563 1.5304 4.2097 0.0000 0.0000 0.0000 13.8242 7.8842 -2.6397 -2.7757 -10.3228 30.0286 -0.4223 -5.4645 -15.4987 -0.0229 0.9772 -2.6860 -4.0398 0.6116 -0.0116 -1.4841 0.8347 0.6686 0.7462 0.3964 0.6569 -8.5103 -6.9178 -9.1824 8.6477 -10.1913 21.3177 3.2286 -4.6995 9.0664 -0.0000 -0.0000 0.0000 -74.9140 0.5992 -2.9555 30.6103 -41.4108 -11.8112 -0.0000 -0.0000 176.2690 23.1163 -18.4732 -7.7030 -7.1250 0.0000 -0.0000 -3.2601 10.0425 2.6461 -0.0000 -0.0000 0.0000 78.4526 -18.1504 61.1212 -109.5409 58.5069 -76.8381 0.0000 -0.0000 -12.8406 -32.2415 24.6326 -14.7294 7.1250 -0.0000 -0.0000 -1.6692 -1.5276 -1.6248
0.00 0.00 0.00 2.9304 -25.8220 -2.7815 0.0000 0.0000 0.0000 -18.8909 -9.9146 -9.4481 1.4790 7.6842 21.7590 0.2797 8.6933 -16.6671 0.2474 3.2009 8.8385 0.0000 0.0000 0.0000 13.1489 11.1971 0.8787 -2.0231 -8.9141 25.5269 -0.4460 -3.6742 -14.5007 -0.0124 0.7201 -1.9788 -4.6652 0.2084 -0.3958 -1.2376 0.3208 0.6361 1.3472 0.1318 0.8570 -7.0792 -5.4045 -11.0515 8.4799 -8.0818 20.3689 3.1422 -3.5689 8.8119 0.0000 0.0000 0.0000 -74.4816 -0.2938 -1.9124 36.2113 -45.6580 -15.6734 -0.0000 -0.0000 169.3740 22.5267 -19.9215 -8.0439 -7.1250 0.0000 -0.0000 -3.7636 8.5945 3.1659 0.0000 0.0000 0.0000 76.9943 -17.8912 64.9545 -97.3787 59.7933 -66.3857 0.0000 -0.0000 -14.9135 -36.4619 28.5554 -19.4540 7.1250 -0.0000 -0.0000 -3.3535 4.0529 -3.5881
0.00 0.00 0.00 4.4548 -30.5507 -4.2628 0.0000 0.0000 0.0000 -19.1992 -9.3711 -8.3669 1.3852 7.4469 21.0464 0.3502 11.1064 -20.1165 0.5691 4.8314 13.4282 0.0000 0.0000 0.0000 12.9445 14.4250 3.2579 -1.5318 -7.8141 22.1507 -0.4294 -2.6820 -13.6522 -0.0140 -0.7646 2.1012 -4.7968 1.2379 -0.4294 -1.4933 1.7081 0.9575 1.1754 0.8132 1.1305 -3.3600 -3.6130 -12.0144 6.7690 -5.8871 20.1063 2.1812 -2.3995 8.5416 -0.0000 0.0000 0.0000 -73.7618 -0.2995 0.5797 37.7811 -46.6990 -16.8061 -0.0000 -0.0000 167.8610 24.1770 -19.0293 -8.3276 -7.1250 0.0000 -0.0000 -2.6191 9.2875 2.1644 -0.0000 0.0000 0.0000 81.5975 -11.9409 63.1952 -75.8518 59.2300 -47.7790 0.0000 -0.0000 -14.4203 -40.3452 34.5563 -25.7250 7.1250 -0.0000 -0.0000 -3.9455 12.0351 -4.6914
0.00 0.00 0.00 3.2182 -34.1936 -4.5992 0.0000 0.0000 0.0000 -13.7862 0.3189 -17.8043 2.8087 10.3787 30.2119 0.3220 4.6161 -13.4229 0.0691 -1.6954 -4.6647 0.0000 0.0000 0.0000 18.3115 15.5770 -3.9322 -1.2968 -7.2148 20.3532 -0.1771 -1.7598 -8.7986 -0.6975 -5.3386 14.8769 1.0613 1.2535 2.2653 0.5793 1.6787 1.8382 -0.0293 0.8436 0.6265 6.6392 0.6350 -12.3312 -3.1715 0.0880 16.1629 -2.1159 0.1546 6.9809 0.0000 -0.0000 0.0000 -87.4720 -1.0654 10.2147 26.9873 -38.1671 -9.4913 -0.0000 0.0000 -170.7330 25.1763 -14.0553 -6.5126 -7.1250 0.0000 -0.0000 -1.5465 14.5206 1.1098 0.0000 -0.0000 0.0000 93.6852 16.7796 57.7945 -39.2977 47.6483 -17.9185 0.0000 -0.0000 -21.1637 -27.0534 30.8354 -14.6692 7.1250 -0.0000 -0.0000 2.4480 3.8265 2.6082
0.00 0.00 0.00 3.5405 -34.8800 -6.6846 0.0000 0.0000 0.0000 -14.3679 4.5869 -17.1081 6.1473 14.5696 45.5701 0.1392 -4.3751 -6.8584 0.1638 -2.6074 -7.1875 0.0000 0.0000 0.0000 18.2444 14.5030 -5.4332 -1.5485 -7.8545 22.2731 -0.1630 1.5765 -7.2379 -0.5609 -4.7972 13.3310 0.5943 1.5400 1.7536 0.8684 2.0511 1.5909 0.5319 1.0243 0.6354 4.8115 0.0305 -11.5621 -3.3810 -0.3007 20.5504 -1.9730 -0.1428 8.2632 -0.0000 -0.0000 0.0000 -90.9005 1.3981 7.9517 26.0614 -37.2693 -8.9248 -0.0000 0.0000 -170.1540 29.4587 -13.9757 -7.7678 -7.1250 0.0000 -0.0000 1.3656 14.0313 -0.9941 -0.0000 -0.0000 0.0000 96.8626 26.4800 55.8649 -27.1131 38.2869 -9.5691 0.0000 -0.0000 -14.6646 -26.2365 26.8181 -12.5360 7.1250 -0.0000 -0.0000 2.2726 -0.5948 2.2507
0.00 0.00 0.00 6.9230 -34.8359 -5.9453 0.0000 0.0000 0.0000 -25.8390 -4.1994 8.7661 1.0452 6.5014 18.2464 -0.7036 -17.0901 -3.0992 1.3425 7.3358 20.7140 0.0000 0.0000 0.0000 10.3379 20.2622 -16.4811 -1.2563 -7.1057 20.0288 -0.0304 0.8028 3.6917 -0.6551 -5.1769 14.4137 -6.1521 1.3293 1.7941 -1.3738 1.6484 0.6723 1.9945 0.8171 -0.4472 0.2969 -1.4882 -12.4008 3.3127 -2.7349 16.0130 0.7567 -1.0210 6.9866 -0.0000 -0.0000 0.0000 -90.5436 1.7450 -1.0252 23.8191 -34.9723 -7.6026 -0.0000 0.0000 -170.6000 24.6065 -18.4944 -8.2658 -7.1250 0.0000 -0.0000 -2.2909 9.7944 1.8694 -0.0000 -0.0000 0.0000 92.3092 13.8729 49.4151 -69.6257 58.3719 -42.4518 0.0000 -0.0000 -4.7132 -48.3410 37.3422 -34.2856 7.1250 -0.0000 -0.0000 -7.1002 18.6407 -9.0527
0.00 0.00 0.00 6.0368 -47.6373 -3.4583 0.0000 0.0000 0.0000 -24.0065 -8.9541 -3.5494 1.2290 7.0307 19.8065 0.6439 -2.6242 -14.4911 0.0002 -0.0828 -0.2275 0.0000 0.0000 0.0000 12.1126 9.5966 -17.4984 -2.9736 -10.6522 31.1158 -0.2431 -7.2294 -14.6347 -0.1498 -2.4939 6.8728 -6.0999 0.5217 2.6839 -0.2961 0.5437 1.4941 3.1005 0.2341 -0.0193 -0.7625 1.7244 -11.3996 2.8352 2.1174 8.7532 1.1477 1.1878 4.4425 -0.0000 -0.0000 0.0000 -91.6035 2.8974 -9.6539 21.0472 -31.8834 -6.0749 -0.0000 0.0000 -170.8360 28.8148 -19.7372 -10.5238 -7.1250 0.0000 -0.0000 0.2853 7.7116 -0.2444 -0.0000 -0.0000 0.0000 87.6015 7.7238 28.7590 -11.0815 18.4131 -1.8016 0.0000 0.0000 17.7257 -33.5902 39.1728 -22.7590 7.1250 -0.0000 -0.0000 0.8228 14.3825 1.0015
